<?xml version="1.0" standalone="no"?>
<!DOCTYPE svg PUBLIC "-//W3C//DTD SVG 20010904//EN"
 "http://www.w3.org/TR/2001/REC-SVG-20010904/DTD/svg10.dtd">
<svg version="1.0" xmlns="http://www.w3.org/2000/svg"
 width="256.000000pt" height="256.000000pt" viewBox="0 0 256.000000 256.000000"
 preserveAspectRatio="xMidYMid meet">
<metadata>
Created by potrace 1.14, written by Peter Selinger 2001-2017
</metadata>
<g transform="translate(0.000000,256.000000) scale(0.100000,-0.100000)"
fill="#000000" stroke="none">
<path d="M310 1876 c0 -31 14 -46 51 -56 47 -13 48 -22 9 -50 -31 -22 -52 -75
-43 -110 7 -27 52 -50 98 -50 31 0 35 -3 35 -26 0 -14 4 -34 10 -44 13 -23
-11 -50 -45 -50 -15 0 -26 -9 -34 -27 -7 -16 -27 -39 -46 -53 -38 -27 -47 -60
-17 -60 11 0 27 9 37 20 10 11 27 20 37 20 10 0 30 7 44 17 15 9 43 16 67 15
48 -2 107 28 107 55 0 14 -4 13 -25 -7 -20 -18 -38 -24 -82 -26 -39 -2 -64 -9
-86 -24 -16 -12 -28 -17 -25 -10 7 21 70 50 110 50 54 0 98 40 98 90 0 54 18
60 22 8 l3 -43 87 -3 c76 -2 87 -1 82 13 -3 8 -4 15 -1 15 11 0 97 -92 97
-104 0 -8 -13 -19 -29 -24 -26 -9 -32 -7 -55 19 -27 30 -50 37 -61 18 -7 -10
59 -79 76 -79 5 0 37 9 72 21 78 26 95 47 72 95 -19 41 -42 58 -31 23 15 -48
18 -77 7 -83 -7 -5 -11 3 -11 21 0 15 -7 37 -15 47 -20 27 -19 43 5 49 11 3
27 20 35 39 l15 33 -2 -40 c-3 -40 -3 -40 30 -37 37 4 42 -10 15 -41 -13 -14
-14 -21 -6 -24 10 -3 10 -9 0 -23 -20 -33 1 -41 68 -29 33 6 67 15 75 19 9 4
28 -1 45 -12 17 -10 37 -18 45 -18 12 1 11 3 -3 11 -19 11 -62 89 -50 89 5 0
21 -16 36 -35 15 -19 35 -35 45 -35 14 0 13 2 -4 14 -28 20 -72 111 -84 175
-12 64 -34 102 -92 158 -91 87 -156 113 -203 77 -11 -8 -36 -19 -57 -24 -20
-6 -50 -22 -66 -35 -17 -14 -41 -25 -55 -25 -14 0 -40 -12 -57 -26 -17 -15
-51 -31 -76 -35 -25 -5 -61 -22 -83 -40 -48 -38 -109 -49 -134 -24 -27 27 -20
54 28 103 25 25 45 51 45 58 0 18 -28 44 -48 44 -9 0 -30 7 -46 15 -35 18 -36
18 -36 1z m674 -122 c3 -9 6 -23 6 -32 0 -21 -15 -5 -25 26 -7 25 9 31 19 6z
m170 -146 c9 -12 16 -32 16 -43 -1 -17 -3 -16 -16 8 -16 30 -24 33 -43 15 -10
-11 -10 -8 0 15 15 33 23 34 43 5z m-24 -133 c0 -8 -7 -15 -15 -15 -26 0 -18
20 13 29 1 1 2 -6 2 -14z"/>
<path d="M2270 1870 c-25 -8 -51 -19 -57 -23 -25 -16 -14 -53 27 -90 61 -54
53 -117 -14 -117 -28 0 -44 8 -125 62 -14 10 -40 18 -57 18 -20 0 -45 11 -69
30 -21 17 -47 30 -59 30 -12 0 -34 10 -48 21 -35 28 -134 70 -179 76 -30 4
-43 -2 -89 -38 -86 -68 -150 -147 -150 -185 0 -43 -34 -130 -67 -171 -24 -30
-30 -43 -19 -43 8 0 27 16 42 35 15 20 29 34 31 31 8 -8 -27 -65 -49 -80 -22
-16 -22 -16 -2 -16 12 0 33 9 48 21 18 14 31 18 39 11 7 -5 30 -12 52 -15 22
-4 53 -10 69 -13 28 -7 29 -6 24 25 -2 17 0 31 5 31 5 0 -1 16 -14 36 l-22 36
34 -2 c49 -3 49 -3 37 31 -6 16 -8 33 -4 36 3 3 11 -8 17 -26 7 -19 22 -36 36
-42 l25 -9 -22 -37 c-12 -20 -19 -45 -16 -56 5 -19 4 -19 -11 -4 -16 15 -16
19 0 52 20 41 20 45 7 45 -5 0 -17 -16 -26 -36 -13 -28 -14 -40 -5 -60 6 -13
16 -26 23 -28 7 -2 39 -12 71 -22 l59 -19 18 23 c10 12 23 22 29 22 6 0 15 9
21 19 8 16 6 21 -12 27 -17 5 -27 0 -46 -24 -21 -28 -26 -29 -53 -20 -40 14
-36 34 16 85 28 26 45 37 45 27 0 -12 15 -14 88 -12 l87 3 5 45 6 45 8 -48 c9
-50 35 -85 71 -92 11 -2 37 -7 57 -10 21 -3 50 -17 65 -31 l28 -25 -32 22
c-23 16 -45 21 -82 21 -40 -1 -56 3 -81 24 -33 28 -45 28 -34 0 10 -26 58 -46
107 -44 31 2 52 -3 65 -15 10 -9 31 -17 45 -17 16 0 32 -8 39 -20 15 -23 58
-27 58 -5 0 8 -16 27 -36 42 -19 15 -42 40 -50 56 -8 15 -23 27 -32 27 -10 0
-26 6 -36 13 -15 11 -16 18 -4 60 12 45 14 47 49 47 52 0 89 32 89 77 0 28 -8
43 -36 70 -39 37 -40 63 -1 63 29 0 50 22 45 47 -3 17 -6 17 -48 3z m-604
-136 c-9 -28 -12 -31 -14 -14 -4 26 4 50 16 50 5 0 4 -16 -2 -36z m-147 -123
c8 -15 7 -18 -6 -17 -9 0 -23 -10 -30 -24 -13 -25 -13 -25 -13 -2 0 23 20 62
32 62 4 0 12 -8 17 -19z m11 -136 c10 -12 10 -15 -4 -15 -9 0 -16 7 -16 15 0
8 2 15 4 15 2 0 9 -7 16 -15z"/>
<path d="M310 1435 c-7 -9 -10 -18 -7 -22 8 -7 37 15 37 28 0 14 -16 11 -30
-6z"/>
<path d="M2300 1436 c0 -20 19 -31 32 -18 7 7 3 14 -11 21 -17 10 -21 9 -21
-3z"/>
<path d="M268 1385 c-3 -14 -1 -28 3 -31 10 -6 29 37 22 49 -9 15 -21 6 -25
-18z"/>
<path d="M2346 1402 c-7 -12 4 -52 15 -52 12 0 12 47 0 55 -5 3 -12 2 -15 -3z"/>
<path d="M1100 980 c0 -71 -3 -130 -7 -130 -5 1 -19 7 -33 15 -38 22 -116 19
-161 -7 -100 -56 -107 -244 -12 -313 41 -29 133 -33 178 -7 34 21 35 21 35 2
0 -18 7 -20 55 -20 l55 0 0 295 0 295 -55 0 -55 0 0 -130z m-25 -215 c17 -16
25 -35 25 -59 0 -48 -8 -65 -41 -81 -40 -21 -64 -19 -96 9 -22 19 -28 32 -28
64 0 82 85 123 140 67z"/>
<path d="M2260 815 l0 -295 55 0 55 0 0 295 0 295 -55 0 -55 0 0 -295z"/>
<path d="M2450 815 l0 -295 55 0 55 0 0 295 0 295 -55 0 -55 0 0 -295z"/>
<path d="M0 810 l0 -290 60 0 60 0 0 235 0 235 45 0 c55 0 95 -33 95 -78 0
-36 -37 -72 -73 -72 -27 0 -27 -1 -27 -71 0 -69 1 -74 56 -160 l57 -89 63 0
c35 0 64 3 64 6 0 3 -34 54 -75 114 -41 60 -75 111 -75 113 0 3 16 11 35 17
102 34 127 203 41 278 -43 38 -107 52 -231 52 l-95 0 0 -290z"/>
<path d="M1400 806 l0 -286 129 0 c182 0 247 27 272 111 23 74 -13 171 -70
190 -10 4 -9 13 8 44 41 76 18 164 -51 202 -25 13 -63 18 -160 21 l-128 4 0
-286z m234 151 c19 -26 19 -30 5 -55 -11 -21 -24 -28 -52 -30 l-37 -3 0 -50 0
-49 41 0 c41 0 78 -14 91 -34 4 -6 8 -25 8 -43 0 -49 -37 -73 -116 -73 l-64 0
0 186 0 185 51 -3 c43 -2 55 -8 73 -31z"/>
<path d="M510 869 c-61 -25 -100 -92 -100 -174 0 -111 60 -174 173 -182 52 -4
69 -1 106 19 24 13 50 33 58 45 14 21 12 23 -27 43 l-42 21 -22 -20 c-33 -31
-89 -28 -115 5 -12 15 -21 31 -21 35 0 5 56 9 125 9 l125 0 0 48 c0 60 -33
119 -80 143 -38 21 -137 25 -180 8z m124 -80 c46 -36 35 -49 -44 -49 -68 0
-69 1 -61 23 8 21 44 47 67 47 6 0 23 -9 38 -21z"/>
<path d="M1844 855 c-4 -8 -5 -66 -3 -128 5 -127 20 -167 79 -201 47 -28 153
-28 200 -1 65 39 74 61 78 205 l4 130 -61 0 -61 0 0 -113 c0 -98 -3 -116 -18
-130 -24 -22 -54 -21 -83 2 -22 18 -24 27 -27 135 l-4 116 -49 0 c-35 0 -51
-4 -55 -15z"/>
</g>
</svg>
